<svg id="Layer_1" data-name="Layer 1" xmlns="http://www.w3.org/2000/svg" viewBox="0 0 481.7 898.69"><defs><style>.cls-1{fill:#fff;}.cls-2{fill:none;stroke:#000;stroke-linecap:round;stroke-linejoin:round;stroke-width:0.5px;}</style></defs><path class="cls-1" d="M682.94,827s74.57-3.81,146.71,10.28V975.69H758.72s-56.24-1.46-77.86,35c0,0-13.58,18.3-13.69,47.43L667.05,1169h156l-24.94,162.6H667.05V1724.7H491.27V1331.64H348.45V1169H491.27l.29-138s2.28-111.83,71.32-160.47C562.88,870.62,616.05,825.93,682.94,827Z" transform="translate(-348.2 -826.26)"/><path class="cls-2" d="M491.27,1169l.29-138s2.28-111.83,71.32-160.47c0,0,53.17-44.69,120.06-43.64,0,0,74.57-3.81,146.71,10.28V975.69H758.72s-56.24-1.46-77.86,35c0,0-13.58,18.3-13.69,47.43L667.05,1169h156l-24.94,162.6H667.05V1724.7H491.27V1331.64H348.45V1169Z" transform="translate(-348.2 -826.26)"/></svg>