<svg xmlns="http://www.w3.org/2000/svg" width="105.829" height="92.849" viewBox="0 0 105.829 92.849">
  <path id="Path_34" data-name="Path 34" d="M104.279,89.747H98.306a8.625,8.625,0,0,0,.024-10.129,9.146,9.146,0,0,0,3.664-1.775,2.668,2.668,0,0,0,.066-4.11L87.712,61.466a7.68,7.68,0,0,1-2.29-3.394L82.07,48.062l0-.01L79.048,39.04A13.531,13.531,0,0,0,70.3,30.453L59.9,27.188A10.98,10.98,0,0,0,64.572,18.2V10.988a10.989,10.989,0,1,0-21.978,0v7.217a10.972,10.972,0,0,0,4.288,8.7q-.4.111-.807.237L35.532,30.453a13.53,13.53,0,0,0-8.752,8.588L20.406,58.072a7.674,7.674,0,0,1-2.289,3.394L3.768,73.734a2.667,2.667,0,0,0,.066,4.109,9.132,9.132,0,0,0,3.842,1.815A9.57,9.57,0,0,0,7.133,87.6a8.6,8.6,0,0,0,1.184,2.152H1.55a1.55,1.55,0,0,0,0,3.1H104.279a1.551,1.551,0,0,0,0-3.1ZM69,53.583l5.475,13.623a1.586,1.586,0,0,0,.109.22,10.8,10.8,0,0,0,3.992,3.866L80.39,72.3,69,68.826Zm16.7,10.24L99.63,75.735a6,6,0,0,1-6.264.253l-13.282-7.4A7.69,7.69,0,0,1,77.3,65.931l-4.88-12.143,7.238-3.159,2.823,8.428A10.785,10.785,0,0,0,85.7,63.823Zm-40-45.618V10.989a7.888,7.888,0,1,1,15.777,0v7.217a7.888,7.888,0,1,1-15.777,0ZM36.461,33.41,47,30.1a19.627,19.627,0,0,1,11.819,0l10.544,3.31a10.42,10.42,0,0,1,6.74,6.615l2.564,7.652-7.406,3.232-2.379-5.918a1.55,1.55,0,0,0-2.988.578V68.423H39.93V45.569a1.55,1.55,0,0,0-2.988-.578l-2.059,5.122-7.316-3.658,2.153-6.429a10.42,10.42,0,0,1,6.74-6.615ZM20.131,63.823a10.772,10.772,0,0,0,3.214-4.767l3.226-9.632L33.723,53,32.6,55.8a1.55,1.55,0,1,0,2.877,1.156l1.357-3.376V68.821L25.663,72.18l1.591-.887a10.792,10.792,0,0,0,3.993-3.865,1.553,1.553,0,0,0,.109-.22l1.159-2.884a1.55,1.55,0,0,0-2.877-1.156l-1.111,2.765a7.681,7.681,0,0,1-2.782,2.653l-13.28,7.4A6,6,0,0,1,6.2,75.735ZM14.816,89.747H14.81A4.867,4.867,0,0,1,10.033,86.5a6.507,6.507,0,0,1,1.47-6.822l27.1-8.152h28.61L92.95,79.381a5.524,5.524,0,0,1,1.787,9.636l-.934.731H61.065A7.876,7.876,0,0,0,59.24,85.93l3.088-.17a1.55,1.55,0,0,0-.17-3.1l-8.4.464c-.355-.064-.726-.117-1.115-.157l-23.91-2.5a1.55,1.55,0,1,0-.322,3.083l23.912,2.5c.362.037.7.088,1.02.149l.02,0c3.095.607,4.183,2.291,4.559,3.539Zm0,0" transform="translate(0 0)"/>
</svg>
