<svg id="Layer_1" data-name="Layer 1" xmlns="http://www.w3.org/2000/svg" viewBox="0 0 768.96 746.17"><defs><style>.cls-1,.cls-2{fill:#fff;}.cls-2,.cls-3{fill-rule:evenodd;}.cls-3{fill:#008b13;}</style></defs><circle class="cls-1" cx="91.89" cy="91.89" r="91.89"/><rect class="cls-1" x="8.89" y="245.34" width="164.88" height="495.96"/><rect class="cls-1" x="265.03" y="245.34" width="164.82" height="500.83"/><path class="cls-2" d="M610.52,1157.08s35.17-50.95,67.93-62.46,63.5-24.53,128.41-11.11c0,0,81.16,14.15,115.59,93.27,0,0,30.38,58.44,24.57,155.08v253.81H782.17l.4-255.55s4.51-65.92-27.66-100.68c0,0-18.66-23-62.31-21.2,0,0-35.28-1.24-65.12,36,0,0-17.53,18.35-18.83,54.09V1159.81Z" transform="translate(-178.8 -844.25)"/><path class="cls-3" d="M779.14,1328.21" transform="translate(-178.8 -844.25)"/><path class="cls-2" d="M1220.87,1328.21" transform="translate(-178.8 -844.25)"/></svg>